<?xml version="1.0" encoding="UTF-8"?>
<svg width="30px" height="30px" viewBox="0 0 30 30" version="1.1" xmlns="http://www.w3.org/2000/svg" xmlns:xlink="http://www.w3.org/1999/xlink">
    <!-- Generator: Sketch 49.2 (51160) - http://www.bohemiancoding.com/sketch -->
    <title>C-Twitter</title>
    <desc>Created with Sketch.</desc>
    <defs></defs>
    <g id="Page-1" stroke="none" stroke-width="1" fill="none" fill-rule="evenodd">
        <g id="Mobile" transform="translate(-225.000000, -4330.000000)" fill="#FFFEFC">
            <g id="Footer" transform="translate(0.000000, 4086.000000)">
                <g id="Social-links" transform="translate(121.000000, 244.000000)">
                    <path d="M119,0 C110.715,0 104,6.715625 104,15 C104,23.2846875 110.715,30 119,30 C127.284375,30 134,23.2846875 134,15 C134,6.715625 127.284375,0 119,0 L119,0 Z M125.100313,12.288125 C125.106562,12.415 125.10875,12.5425 125.10875,12.670625 C125.10875,16.5746875 122.136875,21.0765625 116.703125,21.0765625 C115.035,21.0765625 113.482188,20.5871875 112.175,19.74875 C112.405625,19.7765625 112.640625,19.7903125 112.879375,19.7903125 C114.26375,19.7903125 115.5375,19.318125 116.54875,18.5253125 C115.255938,18.501875 114.164688,17.6475 113.78875,16.4740625 C113.969375,16.508125 114.154375,16.5271875 114.344687,16.5271875 C114.61375,16.5271875 114.875,16.4909375 115.122812,16.4234375 C113.771562,16.151875 112.752812,14.958125 112.752812,13.52625 C112.752812,13.51375 112.752812,13.5015625 112.753437,13.489375 C113.15125,13.710625 113.607187,13.8434375 114.09125,13.8590625 C113.298437,13.3290625 112.777187,12.425 112.777187,11.3996875 C112.777187,10.8584375 112.9225,10.35125 113.176875,9.9146875 C114.63375,11.7021875 116.810937,12.878125 119.26625,13.0015625 C119.215625,12.7853125 119.19,12.5596875 119.19,12.328125 C119.19,10.6965625 120.5125,9.3740625 122.144062,9.3740625 C122.99375,9.3740625 123.761562,9.7328125 124.300313,10.306875 C124.973438,10.174375 125.605938,9.92875 126.176562,9.59 C125.955625,10.2796875 125.4875,10.8590625 124.877813,11.224375 C125.475313,11.1528125 126.044687,10.994375 126.574688,10.759375 C126.17875,11.35125 125.677812,11.871875 125.100313,12.288125 L125.100313,12.288125 Z" id="C-Twitter"></path>
                </g>
            </g>
        </g>
    </g>
</svg>