<?xml version="1.0" encoding="UTF-8"?>
<svg width="27px" height="27px" viewBox="0 0 27 27" version="1.1" xmlns="http://www.w3.org/2000/svg" xmlns:xlink="http://www.w3.org/1999/xlink">
    <!-- Generator: Sketch 49.2 (51160) - http://www.bohemiancoding.com/sketch -->
    <title>Instagram</title>
    <desc>Created with Sketch.</desc>
    <defs></defs>
    <g id="Page-1" stroke="none" stroke-width="1" fill="none" fill-rule="evenodd">
        <g id="Mobile" transform="translate(-173.000000, -4332.000000)" fill="#FFFEFC">
            <g id="Footer" transform="translate(0.000000, 4086.000000)">
                <g id="Social-links" transform="translate(121.000000, 244.000000)">
                    <path d="M73.6626009,15.5 C73.6626009,20.008686 70.0073254,23.6627907 65.5,23.6627907 C60.9914188,23.6627907 57.3373991,20.008686 57.3373991,15.5 C57.3373991,14.9628256 57.39077,14.4382093 57.4893491,13.9302326 L52.0003139,13.9302326 L52.0003139,24.781093 C52.0003139,27.1112558 53.8877584,29 56.2191228,29 L74.7811911,29 C77.110044,29 79,27.1112558 79,24.781093 L79,13.9302326 L73.510337,13.9302326 C73.60923,14.4382093 73.6626009,14.9628256 73.6626009,15.5 L73.6626009,15.5 Z M74.7808772,2 L56.2188089,2 C53.8874445,2 52,3.88937209 52,6.21890698 L52,10.7906977 L58.8339806,10.7906977 C60.3123532,8.70196512 62.746064,7.3372093 65.4996861,7.3372093 C68.2529941,7.3372093 70.686391,8.70196512 72.1644497,10.7906977 L78.9993721,10.7906977 L78.9993721,6.21890698 C78.9996861,3.88905814 77.10973,2 74.7808772,2 L74.7808772,2 Z M76.8431897,7.21131395 C76.8431897,7.62604651 76.5047557,7.96480233 76.0903467,7.96480233 L73.8296202,7.96480233 C73.4158392,7.96480233 73.0761494,7.62604651 73.0761494,7.21131395 L73.0761494,4.95116279 C73.0761494,4.53643023 73.4158392,4.19767442 73.8296202,4.19767442 L76.0903467,4.19767442 C76.5047557,4.19767442 76.8431897,4.53643023 76.8431897,4.95116279 L76.8431897,7.21131395 L76.8431897,7.21131395 Z M70.523139,15.5 C70.523139,12.725593 68.2740285,10.4767442 65.5,10.4767442 C62.7253436,10.4767442 60.476861,12.725593 60.476861,15.5 C60.476861,18.274407 62.7253436,20.5232558 65.5,20.5232558 C68.2740285,20.5232558 70.523139,18.274407 70.523139,15.5 L70.523139,15.5 Z" id="Instagram"></path>
                </g>
            </g>
        </g>
    </g>
</svg>